<svg width="1600" height="1200" viewBox="0 0 1600 1200" fill="none" xmlns="http://www.w3.org/2000/svg">
  <rect width="1600" height="1200" fill="#F7F0E4"/>
  <rect x="80" y="72" width="1440" height="1056" rx="48" fill="#FFF8EB" stroke="#D9CBB1" stroke-width="4"/>
  <rect x="112" y="108" width="1376" height="72" rx="36" fill="#F0E1CA"/>
  <circle cx="164" cy="144" r="12" fill="#B4512F"/>
  <circle cx="204" cy="144" r="12" fill="#DDB582"/>
  <circle cx="244" cy="144" r="12" fill="#506A44"/>
  <rect x="1210" y="126" width="232" height="36" rx="18" fill="#FFFDF8"/>
  <rect x="136" y="232" width="924" height="708" rx="40" fill="#FAF5EA" stroke="#E7D8BD" stroke-width="4"/>
  <rect x="176" y="288" width="300" height="22" rx="11" fill="#CFB99B"/>
  <rect x="176" y="332" width="548" height="18" rx="9" fill="#E1D3BC"/>
  <rect x="176" y="370" width="680" height="18" rx="9" fill="#E1D3BC"/>
  <rect x="176" y="408" width="604" height="18" rx="9" fill="#E1D3BC"/>
  <rect x="176" y="478" width="844" height="412" rx="28" fill="#F0E1CA"/>
  <rect x="1100" y="264" width="312" height="220" rx="34" fill="#FFFDF8" stroke="#E7D8BD" stroke-width="4"/>
  <rect x="1140" y="316" width="54" height="54" rx="18" fill="#F0E1CA"/>
  <rect x="1216" y="316" width="54" height="54" rx="18" fill="#F0E1CA"/>
  <rect x="1292" y="316" width="54" height="54" rx="18" fill="#F0E1CA"/>
  <rect x="1140" y="392" width="54" height="54" rx="18" fill="#F0E1CA"/>
  <rect x="1216" y="392" width="54" height="54" rx="18" fill="#F0E1CA"/>
  <rect x="1292" y="392" width="54" height="54" rx="18" fill="#F0E1CA"/>
  <rect x="1100" y="520" width="312" height="252" rx="34" fill="#FFFDF8" stroke="#E7D8BD" stroke-width="4"/>
  <rect x="1138" y="572" width="184" height="28" rx="14" fill="#B4512F" fill-opacity="0.18"/>
  <rect x="1138" y="620" width="132" height="76" rx="24" fill="#DDB582"/>
  <rect x="1286" y="620" width="86" height="76" rx="24" fill="#506A44" fill-opacity="0.84"/>
  <text x="176" y="1012" fill="#7F3418" font-family="Space Grotesk, Arial, sans-serif" font-size="74" font-weight="700">Karton 0.1</text>
  <text x="176" y="1074" fill="#6D5A46" font-family="IBM Plex Sans, Arial, sans-serif" font-size="34">Compositor surface with shell panels and a warm desktop language.</text>
</svg>